<svg width="300" height="300" viewBox="0 0 300 300" fill="none" xmlns="http://www.w3.org/2000/svg">
<g clip-path="url(#clip0_1001_18)">
<path fill-rule="evenodd" clip-rule="evenodd" d="M150 0C232.843 0 300 67.1573 300 150C300 232.843 232.843 300 150 300C67.1573 300 0 232.843 0 150C0 67.1573 67.1573 0 150 0ZM147.5 96C177.6 96 202 120.4 202 150.5C202 180.6 177.6 205 147.5 205C117.4 205 93 180.6 93 150.5C93 120.4 117.4 96 147.5 96Z" fill="url(#paint0_angular_1001_18)"/>
</g>
<g clip-path="url(#clip1_1001_18)">
<path fill-rule="evenodd" clip-rule="evenodd" d="M148 300C65.1573 300 -2 232.843 -2 150C-2 67.1573 65.1573 0 148 0C230.843 0 298 67.1573 298 150C298 232.843 230.843 300 148 300ZM148.5 96C178.6 96 203 120.4 203 150.5C203 180.6 178.6 205 148.5 205C118.4 205 94 180.6 94 150.5C94 120.4 118.4 96 148.5 96Z" fill="url(#paint1_angular_1001_18)"/>
</g>
<circle cx="148" cy="48" r="48" fill="url(#paint2_linear_1001_18)"/>
<circle cx="148.5" cy="252.5" r="47.5" fill="url(#paint3_linear_1001_18)"/>
<g filter="url(#filter0_i_1001_18)">
<path fill-rule="evenodd" clip-rule="evenodd" d="M148.249 96.0006C148.166 96.0002 148.083 96 148 96C140.857 96 134.145 97.3628 128.028 99.8003C122.509 102 117.408 105.102 112.916 108.948C101.265 118.922 94 133.588 94 150C94 150.083 94.0002 150.166 94.0006 150.249C94.0002 150.333 94 150.416 94 150.5C94 180.6 118.4 205 148.5 205C178.6 205 203 180.6 203 150.5C203 120.4 178.6 96 148.5 96C148.416 96 148.333 96.0002 148.249 96.0006ZM111 57.0681C100.716 61.166 91.2732 66.9214 83 74.0042C61.5767 92.345 48 119.587 48 150C48 205.228 92.7715 250 148 250C203.228 250 248 205.228 248 150C248 94.7715 203.228 50 148 50C134.929 50 122.444 52.5077 111 57.0681Z" fill="white"/>
</g>
<defs>
<filter id="filter0_i_1001_18" x="48" y="50" width="200" height="206" filterUnits="userSpaceOnUse" color-interpolation-filters="sRGB">
<feFlood flood-opacity="0" result="BackgroundImageFix"/>
<feBlend mode="normal" in="SourceGraphic" in2="BackgroundImageFix" result="shape"/>
<feColorMatrix in="SourceAlpha" type="matrix" values="0 0 0 0 0 0 0 0 0 0 0 0 0 0 0 0 0 0 127 0" result="hardAlpha"/>
<feOffset dy="6"/>
<feGaussianBlur stdDeviation="6"/>
<feComposite in2="hardAlpha" operator="arithmetic" k2="-1" k3="1"/>
<feColorMatrix type="matrix" values="0 0 0 0 0 0 0 0 0 0 0 0 0 0 0 0 0 0 0.25 0"/>
<feBlend mode="normal" in2="shape" result="effect1_innerShadow_1001_18"/>
</filter>
<radialGradient id="paint0_angular_1001_18" cx="0" cy="0" r="1" gradientUnits="userSpaceOnUse" gradientTransform="translate(150 150) rotate(-90) scale(150)">
<stop stop-color="#02E7CC"/>
<stop offset="0.494792" stop-color="#015EFC"/>
</radialGradient>
<radialGradient id="paint1_angular_1001_18" cx="0" cy="0" r="1" gradientUnits="userSpaceOnUse" gradientTransform="translate(148 150) rotate(90) scale(150)">
<stop stop-color="#FF8340"/>
<stop offset="0.230131" stop-color="#6C2270"/>
<stop offset="0.484375" stop-color="#0D0046"/>
</radialGradient>
<linearGradient id="paint2_linear_1001_18" x1="148" y1="0" x2="100" y2="0" gradientUnits="userSpaceOnUse">
<stop stop-color="#02E7CC"/>
<stop offset="1" stop-color="#02E7CC" stop-opacity="0"/>
</linearGradient>
<linearGradient id="paint3_linear_1001_18" x1="148.5" y1="205" x2="196" y2="205" gradientUnits="userSpaceOnUse">
<stop stop-color="#F77D43"/>
<stop offset="1" stop-color="#EB7646" stop-opacity="0"/>
</linearGradient>
<clipPath id="clip0_1001_18">
<rect width="148" height="300" fill="white" transform="matrix(1 0 0 -1 0 300)"/>
</clipPath>
<clipPath id="clip1_1001_18">
<rect width="150" height="300" fill="white" transform="translate(148)"/>
</clipPath>
</defs>
</svg>
