<svg width="300" height="300" viewBox="0 0 300 300" fill="none" xmlns="http://www.w3.org/2000/svg">
<g clip-path="url(#clip0_1003_107)">
<circle cx="150" cy="150" r="149" transform="matrix(-1 0 0 1 300 0)" stroke="white" stroke-width="2" stroke-linecap="round" stroke-linejoin="round"/>
<circle cx="150" cy="48" r="46.5" stroke="white" stroke-width="3" stroke-linecap="round" stroke-linejoin="round" stroke-dasharray="8 16"/>
<circle cx="150.5" cy="252.5" r="46" stroke="white" stroke-width="3" stroke-linecap="round" stroke-linejoin="round" stroke-dasharray="8 16"/>
<mask id="path-4-inside-1_1003_107" fill="white">
<path fill-rule="evenodd" clip-rule="evenodd" d="M150 50C205.228 50 250 94.7715 250 150C250 205.228 205.228 250 150 250C94.7715 250 50 205.228 50 150C50 119.587 63.5767 92.345 85 74.0042C93.2732 66.9214 102.716 61.166 113 57.0681C124.444 52.5077 136.929 50 150 50ZM150.5 96C180.6 96 205 120.4 205 150.5C205 180.6 180.6 205 150.5 205C120.4 205 96 180.6 96 150.5C96 120.4 120.4 96 150.5 96Z"/>
</mask>
<path d="M85 74.0042L84.0245 72.8647L84.0245 72.8647L85 74.0042ZM113 57.0681L112.445 55.6747L112.445 55.6747L113 57.0681ZM251.43 146.199C251.4 145.372 250.704 144.725 249.876 144.756C249.048 144.786 248.402 145.482 248.432 146.31L251.43 146.199ZM246.799 131.677C246.952 132.491 247.737 133.027 248.551 132.874C249.365 132.721 249.901 131.937 249.748 131.123L246.799 131.677ZM248.065 123.721C247.851 122.921 247.029 122.446 246.228 122.66C245.428 122.873 244.953 123.696 245.167 124.496L248.065 123.721ZM240.305 110.601C240.636 111.36 241.521 111.706 242.28 111.375C243.039 111.043 243.385 110.159 243.054 109.4L240.305 110.601ZM239.755 102.562C239.367 101.83 238.46 101.551 237.727 101.939C236.995 102.326 236.716 103.234 237.104 103.966L239.755 102.562ZM229.26 91.5069C229.752 92.1731 230.691 92.3139 231.357 91.8214C232.024 91.329 232.164 90.3897 231.672 89.7235L229.26 91.5069ZM226.935 83.7917C226.395 83.164 225.448 83.0934 224.82 83.6341C224.192 84.1747 224.122 85.1218 224.662 85.7495L226.935 83.7917ZM214.25 75.3377C214.878 75.8783 215.825 75.8078 216.366 75.1801C216.907 74.5524 216.836 73.6053 216.208 73.0646L214.25 75.3377ZM210.276 68.328C209.61 67.8356 208.671 67.9764 208.179 68.6426C207.686 69.3087 207.827 70.248 208.493 70.7404L210.276 68.328ZM196.034 62.8961C196.766 63.2838 197.674 63.0047 198.061 62.2726C198.449 61.5405 198.17 60.6327 197.438 60.245L196.034 62.8961ZM190.6 56.9463C189.841 56.6146 188.957 56.9611 188.625 57.7203C188.294 58.4794 188.64 59.3637 189.399 59.6954L190.6 56.9463ZM175.504 54.8334C176.304 55.0473 177.127 54.5719 177.34 53.7716C177.554 52.9713 177.079 52.1491 176.279 51.9351L175.504 54.8334ZM168.877 50.2525C168.063 50.0993 167.279 50.6352 167.126 51.4493C166.973 52.2635 167.509 53.0476 168.323 53.2008L168.877 50.2525ZM153.69 51.5678C154.518 51.5983 155.214 50.9519 155.244 50.124C155.275 49.2962 154.628 48.6003 153.801 48.5699L153.69 51.5678ZM146.796 48.5496C145.968 48.5753 145.317 49.2674 145.343 50.0954C145.368 50.9235 146.061 51.5739 146.889 51.5482L146.796 48.5496ZM134.508 52.7111C135.326 52.5818 135.885 51.8137 135.755 50.9954C135.626 50.1771 134.858 49.6186 134.04 49.7478L134.508 52.7111ZM127.743 50.9482C126.934 51.1291 126.426 51.9311 126.607 52.7395C126.787 53.548 127.589 54.0567 128.398 53.8758L127.743 50.9482ZM116.462 57.3564C117.241 57.0743 117.644 56.2143 117.362 55.4353C117.08 54.6564 116.22 54.2536 115.441 54.5356L116.462 57.3564ZM107.338 57.8747C106.586 58.2233 106.26 59.1151 106.608 59.8667C106.957 60.6182 107.849 60.9448 108.6 60.5962L107.338 57.8747ZM90.1687 71.7473C90.8264 71.2436 90.9513 70.3021 90.4477 69.6444C89.944 68.9867 89.0025 68.8618 88.3448 69.3655L90.1687 71.7473ZM81.2941 75.2881C80.6845 75.8491 80.645 76.798 81.2059 77.4076C81.7668 78.0173 82.7158 78.0568 83.3254 77.4958L81.2941 75.2881ZM73.6152 87.805C74.1386 87.1629 74.0424 86.218 73.4003 85.6946C72.7582 85.1711 71.8134 85.2673 71.2899 85.9094L73.6152 87.805ZM66.8827 91.7291C66.4066 92.4071 66.5702 93.3426 67.2481 93.8188C67.926 94.2949 68.8616 94.1313 69.3377 93.4534L66.8827 91.7291ZM62.0522 105.596C62.4261 104.857 62.13 103.955 61.3908 103.581C60.6516 103.207 59.7492 103.503 59.3752 104.242L62.0522 105.596ZM56.317 110.872C55.9974 111.636 56.3579 112.515 57.1222 112.834C57.8865 113.154 58.7652 112.793 59.0848 112.029L56.317 110.872ZM54.5826 125.454C54.7884 124.651 54.3048 123.834 53.5023 123.628C52.6998 123.422 51.8825 123.906 51.6767 124.708L54.5826 125.454ZM50.1201 131.841C49.9728 132.656 50.5143 133.436 51.3296 133.583C52.1448 133.731 52.9251 133.189 53.0723 132.374L50.1201 131.841ZM51.5626 146.455C51.5919 145.627 50.9445 144.932 50.1165 144.903C49.2886 144.873 48.5937 145.521 48.5645 146.349L51.5626 146.455ZM48.5699 153.801C48.6003 154.628 49.2962 155.275 50.124 155.244C50.9519 155.214 51.5983 154.518 51.5678 153.69L48.5699 153.801ZM53.2008 168.323C53.0476 167.509 52.2635 166.973 51.4493 167.126C50.6352 167.279 50.0993 168.063 50.2525 168.877L53.2008 168.323ZM51.9351 176.279C52.1491 177.079 52.9713 177.554 53.7716 177.34C54.5719 177.127 55.0473 176.304 54.8334 175.504L51.9351 176.279ZM59.6954 189.399C59.3637 188.64 58.4794 188.294 57.7203 188.625C56.9611 188.957 56.6146 189.841 56.9463 190.6L59.6954 189.399ZM60.245 197.438C60.6327 198.17 61.5405 198.449 62.2726 198.061C63.0047 197.674 63.2838 196.766 62.8961 196.034L60.245 197.438ZM70.7404 208.493C70.248 207.827 69.3087 207.686 68.6426 208.179C67.9764 208.671 67.8356 209.61 68.328 210.276L70.7404 208.493ZM73.0646 216.208C73.6053 216.836 74.5524 216.907 75.1801 216.366C75.8078 215.825 75.8783 214.878 75.3377 214.25L73.0646 216.208ZM85.7495 224.662C85.1218 224.122 84.1747 224.192 83.6341 224.82C83.0934 225.448 83.164 226.395 83.7916 226.935L85.7495 224.662ZM89.7235 231.672C90.3897 232.164 91.3289 232.024 91.8214 231.357C92.3139 230.691 92.173 229.752 91.5069 229.26L89.7235 231.672ZM103.966 237.104C103.234 236.716 102.326 236.995 101.939 237.727C101.551 238.46 101.83 239.367 102.562 239.755L103.966 237.104ZM109.4 243.054C110.159 243.385 111.043 243.039 111.375 242.28C111.706 241.521 111.36 240.636 110.601 240.305L109.4 243.054ZM124.496 245.167C123.696 244.953 122.873 245.428 122.66 246.228C122.446 247.029 122.921 247.851 123.721 248.065L124.496 245.167ZM131.123 249.748C131.937 249.901 132.721 249.365 132.874 248.551C133.027 247.737 132.491 246.952 131.677 246.799L131.123 249.748ZM146.31 248.432C145.482 248.402 144.786 249.048 144.756 249.876C144.725 250.704 145.372 251.4 146.199 251.43L146.31 248.432ZM153.801 251.43C154.628 251.4 155.275 250.704 155.244 249.876C155.214 249.048 154.518 248.402 153.69 248.432L153.801 251.43ZM168.323 246.799C167.509 246.952 166.973 247.737 167.126 248.551C167.279 249.365 168.063 249.901 168.877 249.748L168.323 246.799ZM176.279 248.065C177.079 247.851 177.554 247.029 177.34 246.228C177.127 245.428 176.304 244.953 175.504 245.167L176.279 248.065ZM189.399 240.305C188.64 240.636 188.294 241.521 188.625 242.28C188.957 243.039 189.841 243.385 190.6 243.054L189.399 240.305ZM197.438 239.755C198.17 239.367 198.449 238.46 198.061 237.727C197.674 236.995 196.766 236.716 196.034 237.104L197.438 239.755ZM208.493 229.26C207.827 229.752 207.686 230.691 208.179 231.357C208.671 232.024 209.61 232.164 210.276 231.672L208.493 229.26ZM216.208 226.935C216.836 226.395 216.907 225.448 216.366 224.82C215.825 224.192 214.878 224.122 214.25 224.662L216.208 226.935ZM224.662 214.25C224.122 214.878 224.192 215.825 224.82 216.366C225.448 216.907 226.395 216.836 226.935 216.208L224.662 214.25ZM231.672 210.276C232.164 209.61 232.024 208.671 231.357 208.179C230.691 207.686 229.752 207.827 229.26 208.493L231.672 210.276ZM237.104 196.034C236.716 196.766 236.995 197.674 237.727 198.061C238.46 198.449 239.367 198.17 239.755 197.438L237.104 196.034ZM243.054 190.6C243.385 189.841 243.039 188.957 242.28 188.625C241.521 188.294 240.636 188.64 240.305 189.399L243.054 190.6ZM245.167 175.504C244.953 176.304 245.428 177.127 246.228 177.34C247.029 177.554 247.851 177.079 248.065 176.279L245.167 175.504ZM249.748 168.877C249.901 168.063 249.365 167.279 248.551 167.126C247.737 166.973 246.952 167.509 246.799 168.323L249.748 168.877ZM248.432 153.69C248.402 154.518 249.048 155.214 249.876 155.244C250.704 155.275 251.4 154.628 251.43 153.801L248.432 153.69ZM206.382 146.835C206.329 146.009 205.615 145.382 204.788 145.435C203.962 145.489 203.335 146.202 203.388 147.029L206.382 146.835ZM200.701 133.457C200.967 134.242 201.819 134.662 202.603 134.396C203.388 134.129 203.808 133.278 203.542 132.493L200.701 133.457ZM200.735 125.726C200.368 124.983 199.469 124.678 198.726 125.045C197.983 125.412 197.679 126.312 198.046 127.054L200.735 125.726ZM190.349 115.555C190.895 116.177 191.843 116.239 192.465 115.693C193.088 115.146 193.15 114.199 192.603 113.576L190.349 115.555ZM187.424 108.397C186.801 107.85 185.854 107.912 185.307 108.535C184.761 109.157 184.823 110.105 185.445 110.651L187.424 108.397ZM173.946 102.954C174.688 103.321 175.588 103.017 175.955 102.274C176.322 101.531 176.017 100.632 175.274 100.265L173.946 102.954ZM168.507 97.4584C167.722 97.1922 166.871 97.6123 166.604 98.3968C166.338 99.1812 166.758 100.033 167.543 100.299L168.507 97.4584ZM153.971 97.6118C154.798 97.6652 155.511 97.0384 155.565 96.2117C155.618 95.3849 154.991 94.6715 154.165 94.618L153.971 97.6118ZM146.835 94.618C146.009 94.6715 145.382 95.385 145.435 96.2117C145.489 97.0384 146.202 97.6652 147.029 97.6118L146.835 94.618ZM133.457 100.299C134.242 100.033 134.662 99.1812 134.396 98.3968C134.129 97.6123 133.278 97.1922 132.493 97.4584L133.457 100.299ZM125.726 100.265C124.983 100.632 124.678 101.531 125.045 102.274C125.412 103.017 126.312 103.321 127.054 102.954L125.726 100.265ZM115.555 110.651C116.177 110.105 116.239 109.157 115.693 108.535C115.146 107.912 114.199 107.85 113.576 108.397L115.555 110.651ZM108.397 113.576C107.85 114.199 107.912 115.146 108.535 115.693C109.157 116.239 110.105 116.177 110.651 115.555L108.397 113.576ZM102.954 127.054C103.321 126.312 103.017 125.412 102.274 125.045C101.531 124.678 100.632 124.983 100.265 125.726L102.954 127.054ZM97.4584 132.493C97.1922 133.278 97.6123 134.129 98.3968 134.396C99.1812 134.662 100.033 134.242 100.299 133.457L97.4584 132.493ZM97.6118 147.029C97.6652 146.202 97.0384 145.489 96.2117 145.435C95.3849 145.382 94.6715 146.009 94.618 146.835L97.6118 147.029ZM94.618 154.165C94.6715 154.991 95.385 155.618 96.2117 155.565C97.0384 155.511 97.6652 154.798 97.6118 153.971L94.618 154.165ZM100.299 167.543C100.033 166.758 99.1812 166.338 98.3968 166.604C97.6123 166.871 97.1922 167.722 97.4584 168.507L100.299 167.543ZM100.265 175.274C100.632 176.017 101.531 176.322 102.274 175.955C103.017 175.588 103.321 174.688 102.954 173.946L100.265 175.274ZM110.651 185.445C110.105 184.823 109.157 184.761 108.535 185.307C107.912 185.854 107.85 186.801 108.397 187.424L110.651 185.445ZM113.576 192.603C114.199 193.15 115.146 193.088 115.693 192.465C116.239 191.843 116.177 190.895 115.555 190.349L113.576 192.603ZM127.054 198.046C126.312 197.679 125.412 197.983 125.045 198.726C124.678 199.469 124.983 200.368 125.726 200.735L127.054 198.046ZM132.493 203.542C133.278 203.808 134.129 203.388 134.396 202.603C134.662 201.819 134.242 200.967 133.457 200.701L132.493 203.542ZM147.029 203.388C146.202 203.335 145.489 203.962 145.435 204.788C145.382 205.615 146.009 206.329 146.835 206.382L147.029 203.388ZM154.165 206.382C154.991 206.329 155.618 205.615 155.565 204.788C155.511 203.962 154.798 203.335 153.971 203.388L154.165 206.382ZM167.543 200.701C166.758 200.967 166.338 201.819 166.604 202.603C166.871 203.388 167.722 203.808 168.507 203.542L167.543 200.701ZM175.274 200.735C176.017 200.368 176.322 199.469 175.955 198.726C175.588 197.983 174.688 197.679 173.946 198.046L175.274 200.735ZM185.445 190.349C184.823 190.895 184.761 191.843 185.307 192.465C185.854 193.088 186.801 193.15 187.424 192.603L185.445 190.349ZM192.603 187.424C193.15 186.801 193.088 185.854 192.465 185.307C191.843 184.761 190.895 184.823 190.349 185.445L192.603 187.424ZM198.046 173.946C197.679 174.688 197.983 175.588 198.726 175.955C199.469 176.322 200.368 176.017 200.735 175.274L198.046 173.946ZM203.542 168.507C203.808 167.722 203.388 166.871 202.603 166.604C201.819 166.338 200.967 166.758 200.701 167.543L203.542 168.507ZM203.388 153.971C203.335 154.798 203.962 155.511 204.788 155.565C205.615 155.618 206.329 154.991 206.382 154.165L203.388 153.971ZM251.5 150C251.5 148.728 251.477 147.461 251.43 146.199L248.432 146.31C248.477 147.534 248.5 148.764 248.5 150H251.5ZM249.748 131.123C249.277 128.622 248.715 126.154 248.065 123.721L245.167 124.496C245.797 126.856 246.343 129.251 246.799 131.677L249.748 131.123ZM243.054 109.4C242.037 107.074 240.937 104.793 239.755 102.562L237.104 103.966C238.25 106.131 239.319 108.344 240.305 110.601L243.054 109.4ZM231.672 89.7235C230.166 87.6865 228.586 85.7079 226.935 83.7917L224.662 85.7495C226.264 87.6095 227.798 89.5299 229.26 91.5069L231.672 89.7235ZM216.208 73.0646C214.292 71.4141 212.313 69.8339 210.276 68.328L208.493 70.7404C210.47 72.2019 212.391 73.7356 214.25 75.3377L216.208 73.0646ZM197.438 60.245C195.207 59.0634 192.926 57.9625 190.6 56.9463L189.399 59.6954C191.656 60.6814 193.869 61.7496 196.034 62.8961L197.438 60.245ZM176.279 51.9351C173.846 51.2849 171.378 50.7229 168.877 50.2525L168.323 53.2008C170.749 53.6572 173.144 54.2026 175.504 54.8334L176.279 51.9351ZM153.801 48.5699C152.539 48.5234 151.272 48.5 150 48.5V51.5C151.236 51.5 152.466 51.5227 153.69 51.5678L153.801 48.5699ZM150 48.5C148.928 48.5 147.86 48.5166 146.796 48.5496L146.889 51.5482C147.922 51.5161 148.959 51.5 150 51.5V48.5ZM134.04 49.7478C131.918 50.0829 129.819 50.4838 127.743 50.9482L128.398 53.8758C130.412 53.4252 132.449 53.0363 134.508 52.7111L134.04 49.7478ZM115.441 54.5356C114.435 54.8999 113.436 55.2797 112.445 55.6747L113.555 58.4616C114.517 58.0784 115.486 57.7099 116.462 57.3564L115.441 54.5356ZM112.445 55.6747C110.719 56.3626 109.016 57.0964 107.338 57.8747L108.6 60.5962C110.228 59.841 111.88 59.129 113.555 58.4616L112.445 55.6747ZM88.3448 69.3655C86.8724 70.493 85.4317 71.6599 84.0245 72.8647L85.9755 75.1436C87.3414 73.9743 88.7396 72.8417 90.1687 71.7473L88.3448 69.3655ZM84.0245 72.8647C83.0998 73.6563 82.1895 74.4643 81.2941 75.2881L83.3254 77.4958C84.1945 76.6962 85.078 75.912 85.9755 75.1436L84.0245 72.8647ZM71.2899 85.9094C69.7533 87.7942 68.2831 89.7353 66.8827 91.7291L69.3377 93.4534C70.6968 91.5183 72.1238 89.6344 73.6152 87.805L71.2899 85.9094ZM59.3752 104.242C58.2793 106.408 57.2588 108.619 56.317 110.872L59.0848 112.029C59.9985 109.844 60.9888 107.698 62.0522 105.596L59.3752 104.242ZM51.6767 124.708C51.075 127.054 50.5551 129.433 50.1201 131.841L53.0723 132.374C53.4944 130.037 53.9989 127.73 54.5826 125.454L51.6767 124.708ZM48.5645 146.349C48.5216 147.561 48.5 148.778 48.5 150H51.5C51.5 148.813 51.521 147.631 51.5626 146.455L48.5645 146.349ZM48.5 150C48.5 151.272 48.5234 152.539 48.5699 153.801L51.5678 153.69C51.5227 152.466 51.5 151.236 51.5 150H48.5ZM50.2525 168.877C50.7229 171.378 51.2849 173.846 51.9351 176.279L54.8334 175.504C54.2026 173.144 53.6572 170.749 53.2008 168.323L50.2525 168.877ZM56.9463 190.6C57.9625 192.926 59.0634 195.207 60.245 197.438L62.8961 196.034C61.7496 193.869 60.6814 191.656 59.6954 189.399L56.9463 190.6ZM68.328 210.276C69.8339 212.313 71.4141 214.292 73.0646 216.208L75.3377 214.25C73.7356 212.391 72.2019 210.47 70.7404 208.493L68.328 210.276ZM83.7916 226.935C85.7079 228.586 87.6865 230.166 89.7235 231.672L91.5069 229.26C89.5299 227.798 87.6094 226.264 85.7495 224.662L83.7916 226.935ZM102.562 239.755C104.793 240.937 107.074 242.037 109.4 243.054L110.601 240.305C108.344 239.319 106.131 238.25 103.966 237.104L102.562 239.755ZM123.721 248.065C126.154 248.715 128.622 249.277 131.123 249.748L131.677 246.799C129.251 246.343 126.856 245.797 124.496 245.167L123.721 248.065ZM146.199 251.43C147.461 251.477 148.728 251.5 150 251.5V248.5C148.764 248.5 147.534 248.477 146.31 248.432L146.199 251.43ZM150 251.5C151.272 251.5 152.539 251.477 153.801 251.43L153.69 248.432C152.466 248.477 151.236 248.5 150 248.5V251.5ZM168.877 249.748C171.378 249.277 173.846 248.715 176.279 248.065L175.504 245.167C173.144 245.797 170.749 246.343 168.323 246.799L168.877 249.748ZM190.6 243.054C192.926 242.037 195.207 240.937 197.438 239.755L196.034 237.104C193.869 238.25 191.656 239.319 189.399 240.305L190.6 243.054ZM210.276 231.672C212.313 230.166 214.292 228.586 216.208 226.935L214.25 224.662C212.391 226.264 210.47 227.798 208.493 229.26L210.276 231.672ZM226.935 216.208C228.586 214.292 230.166 212.313 231.672 210.276L229.26 208.493C227.798 210.47 226.264 212.391 224.662 214.25L226.935 216.208ZM239.755 197.438C240.937 195.207 242.037 192.926 243.054 190.6L240.305 189.399C239.319 191.656 238.25 193.869 237.104 196.034L239.755 197.438ZM248.065 176.279C248.715 173.846 249.277 171.378 249.748 168.877L246.799 168.323C246.343 170.749 245.797 173.144 245.167 175.504L248.065 176.279ZM251.43 153.801C251.477 152.539 251.5 151.272 251.5 150H248.5C248.5 151.236 248.477 152.466 248.432 153.69L251.43 153.801ZM206.5 150.5C206.5 149.269 206.46 148.047 206.382 146.835L203.388 147.029C203.462 148.176 203.5 149.334 203.5 150.5H206.5ZM203.542 132.493C202.751 130.165 201.812 127.905 200.735 125.726L198.046 127.054C199.065 129.117 199.953 131.254 200.701 133.457L203.542 132.493ZM192.603 113.576C190.991 111.739 189.261 110.009 187.424 108.397L185.445 110.651C187.184 112.178 188.822 113.816 190.349 115.555L192.603 113.576ZM175.274 100.265C173.095 99.1879 170.835 98.2487 168.507 97.4584L167.543 100.299C169.746 101.047 171.883 101.935 173.946 102.954L175.274 100.265ZM154.165 94.618C152.953 94.5397 151.731 94.5 150.5 94.5V97.5C151.666 97.5 152.824 97.5377 153.971 97.6118L154.165 94.618ZM150.5 94.5C149.269 94.5 148.047 94.5397 146.835 94.618L147.029 97.6118C148.176 97.5377 149.334 97.5 150.5 97.5V94.5ZM132.493 97.4584C130.165 98.2487 127.905 99.1879 125.726 100.265L127.054 102.954C129.117 101.935 131.254 101.047 133.457 100.299L132.493 97.4584ZM113.576 108.397C111.739 110.009 110.009 111.739 108.397 113.576L110.651 115.555C112.178 113.816 113.816 112.178 115.555 110.651L113.576 108.397ZM100.265 125.726C99.1879 127.905 98.2487 130.165 97.4584 132.493L100.299 133.457C101.047 131.254 101.935 129.117 102.954 127.054L100.265 125.726ZM94.618 146.835C94.5397 148.047 94.5 149.269 94.5 150.5H97.5C97.5 149.334 97.5377 148.176 97.6118 147.029L94.618 146.835ZM94.5 150.5C94.5 151.731 94.5397 152.953 94.618 154.165L97.6118 153.971C97.5377 152.824 97.5 151.666 97.5 150.5H94.5ZM97.4584 168.507C98.2487 170.835 99.1879 173.095 100.265 175.274L102.954 173.946C101.935 171.883 101.047 169.746 100.299 167.543L97.4584 168.507ZM108.397 187.424C110.009 189.261 111.739 190.991 113.576 192.603L115.555 190.349C113.816 188.822 112.178 187.184 110.651 185.445L108.397 187.424ZM125.726 200.735C127.905 201.812 130.165 202.751 132.493 203.542L133.457 200.701C131.254 199.953 129.117 199.065 127.054 198.046L125.726 200.735ZM146.835 206.382C148.047 206.46 149.269 206.5 150.5 206.5V203.5C149.334 203.5 148.176 203.462 147.029 203.388L146.835 206.382ZM150.5 206.5C151.731 206.5 152.953 206.46 154.165 206.382L153.971 203.388C152.824 203.462 151.666 203.5 150.5 203.5V206.5ZM168.507 203.542C170.835 202.751 173.095 201.812 175.274 200.735L173.946 198.046C171.883 199.065 169.746 199.953 167.543 200.701L168.507 203.542ZM187.424 192.603C189.261 190.991 190.991 189.261 192.603 187.424L190.349 185.445C188.822 187.184 187.184 188.822 185.445 190.349L187.424 192.603ZM200.735 175.274C201.812 173.095 202.751 170.835 203.542 168.507L200.701 167.543C199.953 169.746 199.065 171.883 198.046 173.946L200.735 175.274ZM206.382 154.165C206.46 152.953 206.5 151.731 206.5 150.5H203.5C203.5 151.666 203.462 152.824 203.388 153.971L206.382 154.165ZM85 74.0042L83.049 71.7252L83.049 71.7252L85 74.0042ZM113 57.0681L111.889 54.2813L111.889 54.2813L113 57.0681ZM252.929 146.144C252.868 144.488 251.477 143.196 249.821 143.257C248.165 143.318 246.872 144.709 246.933 146.365L252.929 146.144ZM245.325 131.955C245.631 133.583 247.2 134.655 248.828 134.348C250.456 134.042 251.528 132.474 251.222 130.845L245.325 131.955ZM249.514 123.334C249.086 121.733 247.442 120.783 245.841 121.21C244.24 121.638 243.29 123.283 243.717 124.883L249.514 123.334ZM238.93 111.201C239.593 112.719 241.362 113.413 242.88 112.749C244.399 112.086 245.092 110.317 244.428 108.799L238.93 111.201ZM241.081 101.86C240.305 100.396 238.49 99.8376 237.025 100.613C235.561 101.389 235.003 103.204 235.778 104.668L241.081 101.86ZM228.053 92.3986C229.038 93.7309 230.917 94.0125 232.249 93.0276C233.581 92.0427 233.863 90.1642 232.878 88.8319L228.053 92.3986ZM228.072 82.8127C226.991 81.5573 225.096 81.4162 223.841 82.4975C222.586 83.5788 222.445 85.4731 223.526 86.7285L228.072 82.8127ZM213.272 76.4742C214.527 77.5555 216.421 77.4144 217.502 76.159C218.584 74.9037 218.443 73.0094 217.187 71.9281L213.272 76.4742ZM211.168 67.1218C209.836 66.1369 207.957 66.4186 206.972 67.7509C205.987 69.0832 206.269 70.9617 207.601 71.9466L211.168 67.1218ZM195.332 64.2217C196.796 64.9971 198.612 64.4388 199.387 62.9746C200.162 61.5104 199.604 59.6948 198.14 58.9194L195.332 64.2217ZM191.201 55.5718C189.683 54.9084 187.914 55.6015 187.251 57.1197C186.587 58.638 187.281 60.4065 188.799 61.0699L191.201 55.5718ZM175.117 56.2825C176.717 56.7104 178.362 55.7596 178.79 54.159C179.217 52.5583 178.267 50.9139 176.666 50.486L175.117 56.2825ZM169.155 48.7783C167.526 48.472 165.958 49.5437 165.652 51.172C165.345 52.8003 166.417 54.3686 168.045 54.6749L169.155 48.7783ZM153.635 53.0668C155.291 53.1278 156.682 51.835 156.743 50.1792C156.804 48.5235 155.511 47.1318 153.856 47.0709L153.635 53.0668ZM146.749 47.0504C145.093 47.1017 143.792 48.4859 143.844 50.1419C143.895 51.798 145.279 53.0988 146.935 53.0475L146.749 47.0504ZM134.742 54.1927C136.378 53.9342 137.496 52.398 137.237 50.7614C136.979 49.1248 135.442 48.0077 133.806 48.2662L134.742 54.1927ZM127.415 49.4844C125.799 49.8462 124.781 51.4502 125.143 53.067C125.505 54.6839 127.109 55.7014 128.725 55.3396L127.415 49.4844ZM116.973 58.7668C118.531 58.2027 119.337 56.4825 118.772 54.9246C118.208 53.3668 116.488 52.5611 114.93 53.1252L116.973 58.7668ZM106.707 56.514C105.204 57.2112 104.55 58.9948 105.248 60.4978C105.945 62.0009 107.728 62.6541 109.231 61.9569L106.707 56.514ZM91.0807 72.9382C92.3961 71.9309 92.6459 70.0479 91.6386 68.7324C90.6313 67.417 88.7483 67.1672 87.4328 68.1745L91.0807 72.9382ZM80.2785 74.1843C79.0592 75.3061 78.9802 77.204 80.1021 78.4233C81.2239 79.6425 83.1217 79.7215 84.341 78.5997L80.2785 74.1843ZM74.7778 88.7528C75.8247 87.4686 75.6323 85.5788 74.3481 84.5319C73.064 83.485 71.1742 83.6774 70.1273 84.9616L74.7778 88.7528ZM65.6552 90.867C64.703 92.2229 65.0301 94.094 66.386 95.0463C67.7418 95.9985 69.6129 95.6714 70.5652 94.3155L65.6552 90.867ZM63.3906 106.274C64.1386 104.795 63.5464 102.99 62.068 102.242C60.5895 101.494 58.7847 102.087 58.0368 103.565L63.3906 106.274ZM54.9331 110.293C54.294 111.821 55.015 113.579 56.5436 114.218C58.0722 114.857 59.8295 114.136 60.4687 112.608L54.9331 110.293ZM56.0356 125.826C56.4472 124.221 55.4799 122.587 53.875 122.175C52.2701 121.763 50.6353 122.731 50.2237 124.336L56.0356 125.826ZM48.644 131.574C48.3495 133.204 49.4325 134.765 51.0629 135.06C52.6934 135.354 54.2539 134.271 54.5484 132.641L48.644 131.574ZM53.0617 146.508C53.1202 144.852 51.8254 143.462 50.1696 143.404C48.5137 143.345 47.124 144.64 47.0654 146.296L53.0617 146.508ZM47.0709 153.856C47.1318 155.512 48.5235 156.804 50.1792 156.743C51.835 156.682 53.1278 155.291 53.0668 153.635L47.0709 153.856ZM54.6749 168.045C54.3686 166.417 52.8003 165.345 51.172 165.652C49.5437 165.958 48.472 167.526 48.7783 169.155L54.6749 168.045ZM50.486 176.666C50.9139 178.267 52.5583 179.217 54.159 178.79C55.7596 178.362 56.7104 176.717 56.2825 175.117L50.486 176.666ZM61.0699 188.799C60.4065 187.281 58.638 186.587 57.1197 187.251C55.6015 187.914 54.9084 189.683 55.5718 191.201L61.0699 188.799ZM58.9194 198.14C59.6948 199.604 61.5104 200.162 62.9746 199.387C64.4388 198.612 64.9971 196.796 64.2217 195.332L58.9194 198.14ZM71.9466 207.601C70.9617 206.269 69.0832 205.987 67.7509 206.972C66.4186 207.957 66.1369 209.836 67.1218 211.168L71.9466 207.601ZM71.9281 217.187C73.0094 218.443 74.9036 218.584 76.159 217.502C77.4144 216.421 77.5555 214.527 76.4742 213.272L71.9281 217.187ZM86.7284 223.526C85.4731 222.444 83.5788 222.586 82.4975 223.841C81.4162 225.096 81.5573 226.991 82.8127 228.072L86.7284 223.526ZM88.8319 232.878C90.1642 233.863 92.0427 233.581 93.0276 232.249C94.0125 230.917 93.7309 229.038 92.3986 228.053L88.8319 232.878ZM104.668 235.778C103.204 235.003 101.388 235.561 100.613 237.025C99.8376 238.49 100.396 240.305 101.86 241.081L104.668 235.778ZM108.799 244.428C110.317 245.092 112.086 244.399 112.749 242.88C113.413 241.362 112.719 239.593 111.201 238.93L108.799 244.428ZM124.883 243.717C123.283 243.29 121.638 244.24 121.21 245.841C120.783 247.442 121.733 249.086 123.334 249.514L124.883 243.717ZM130.845 251.222C132.474 251.528 134.042 250.456 134.348 248.828C134.655 247.2 133.583 245.631 131.955 245.325L130.845 251.222ZM146.365 246.933C144.709 246.872 143.318 248.165 143.257 249.821C143.196 251.477 144.489 252.868 146.144 252.929L146.365 246.933ZM153.856 252.929C155.512 252.868 156.804 251.477 156.743 249.821C156.682 248.165 155.291 246.872 153.635 246.933L153.856 252.929ZM168.045 245.325C166.417 245.631 165.345 247.2 165.652 248.828C165.958 250.456 167.526 251.528 169.155 251.222L168.045 245.325ZM176.666 249.514C178.267 249.086 179.217 247.442 178.79 245.841C178.362 244.24 176.717 243.29 175.117 243.717L176.666 249.514ZM188.799 238.93C187.281 239.593 186.587 241.362 187.251 242.88C187.914 244.399 189.683 245.092 191.201 244.428L188.799 238.93ZM198.14 241.081C199.604 240.305 200.162 238.49 199.387 237.025C198.612 235.561 196.796 235.003 195.332 235.778L198.14 241.081ZM207.601 228.053C206.269 229.038 205.987 230.917 206.972 232.249C207.957 233.581 209.836 233.863 211.168 232.878L207.601 228.053ZM217.187 228.072C218.443 226.991 218.584 225.096 217.502 223.841C216.421 222.586 214.527 222.445 213.272 223.526L217.187 228.072ZM223.526 213.272C222.444 214.527 222.586 216.421 223.841 217.502C225.096 218.584 226.991 218.443 228.072 217.187L223.526 213.272ZM232.878 211.168C233.863 209.836 233.581 207.957 232.249 206.972C230.917 205.987 229.038 206.269 228.053 207.601L232.878 211.168ZM235.778 195.332C235.003 196.796 235.561 198.612 237.025 199.387C238.49 200.162 240.305 199.604 241.081 198.14L235.778 195.332ZM244.428 191.201C245.092 189.683 244.399 187.914 242.88 187.251C241.362 186.587 239.593 187.281 238.93 188.799L244.428 191.201ZM243.717 175.117C243.29 176.717 244.24 178.362 245.841 178.79C247.442 179.217 249.086 178.267 249.514 176.666L243.717 175.117ZM251.222 169.155C251.528 167.526 250.456 165.958 248.828 165.652C247.2 165.345 245.631 166.417 245.325 168.045L251.222 169.155ZM246.933 153.635C246.872 155.291 248.165 156.682 249.821 156.743C251.477 156.804 252.868 155.511 252.929 153.856L246.933 153.635ZM207.879 146.739C207.772 145.085 206.345 143.832 204.692 143.938C203.038 144.045 201.784 145.472 201.891 147.126L207.879 146.739ZM199.28 133.939C199.813 135.508 201.516 136.348 203.085 135.816C204.654 135.284 205.494 133.58 204.962 132.011L199.28 133.939ZM202.08 125.061C201.346 123.576 199.547 122.966 198.062 123.7C196.576 124.434 195.967 126.233 196.701 127.719L202.08 125.061ZM189.221 116.544C190.314 117.79 192.21 117.913 193.455 116.82C194.7 115.727 194.824 113.832 193.731 112.586L189.221 116.544ZM188.414 107.269C187.168 106.176 185.273 106.3 184.18 107.545C183.087 108.79 183.21 110.686 184.456 111.779L188.414 107.269ZM173.281 104.299C174.767 105.033 176.566 104.424 177.3 102.938C178.034 101.453 177.424 99.6538 175.939 98.9199L173.281 104.299ZM168.989 96.038C167.42 95.5055 165.716 96.3457 165.184 97.9147C164.652 99.4837 165.492 101.187 167.061 101.72L168.989 96.038ZM153.874 99.1087C155.528 99.2155 156.955 97.9618 157.062 96.3084C157.168 94.655 155.915 93.228 154.261 93.1212L153.874 99.1087ZM146.739 93.1212C145.085 93.228 143.832 94.655 143.938 96.3084C144.045 97.9618 145.472 99.2155 147.126 99.1087L146.739 93.1212ZM133.939 101.72C135.508 101.187 136.348 99.4837 135.816 97.9147C135.284 96.3457 133.58 95.5055 132.011 96.038L133.939 101.72ZM125.061 98.9198C123.576 99.6538 122.966 101.453 123.7 102.938C124.434 104.424 126.233 105.033 127.719 104.299L125.061 98.9198ZM116.544 111.779C117.79 110.686 117.913 108.79 116.82 107.545C115.727 106.3 113.832 106.176 112.586 107.269L116.544 111.779ZM107.269 112.586C106.176 113.832 106.3 115.727 107.545 116.82C108.79 117.913 110.686 117.79 111.779 116.544L107.269 112.586ZM104.299 127.719C105.033 126.233 104.424 124.434 102.938 123.7C101.453 122.966 99.6538 123.576 98.9199 125.061L104.299 127.719ZM96.038 132.011C95.5055 133.58 96.3457 135.284 97.9147 135.816C99.4837 136.348 101.187 135.508 101.72 133.939L96.038 132.011ZM99.1087 147.126C99.2155 145.472 97.9618 144.045 96.3084 143.938C94.655 143.832 93.228 145.085 93.1212 146.739L99.1087 147.126ZM93.1212 154.261C93.228 155.915 94.655 157.168 96.3084 157.062C97.9618 156.955 99.2155 155.528 99.1087 153.874L93.1212 154.261ZM101.72 167.061C101.187 165.492 99.4837 164.652 97.9147 165.184C96.3457 165.716 95.5055 167.42 96.038 168.989L101.72 167.061ZM98.9198 175.939C99.6538 177.424 101.453 178.034 102.938 177.3C104.424 176.566 105.033 174.767 104.299 173.281L98.9198 175.939ZM111.779 184.456C110.686 183.21 108.79 183.087 107.545 184.18C106.3 185.273 106.176 187.168 107.269 188.414L111.779 184.456ZM112.586 193.731C113.832 194.824 115.727 194.7 116.82 193.455C117.913 192.21 117.79 190.314 116.544 189.221L112.586 193.731ZM127.719 196.701C126.233 195.967 124.434 196.576 123.7 198.062C122.966 199.547 123.576 201.346 125.061 202.08L127.719 196.701ZM132.011 204.962C133.58 205.494 135.284 204.654 135.816 203.085C136.348 201.516 135.508 199.813 133.939 199.28L132.011 204.962ZM147.126 201.891C145.472 201.784 144.045 203.038 143.938 204.692C143.832 206.345 145.085 207.772 146.739 207.879L147.126 201.891ZM154.261 207.879C155.915 207.772 157.168 206.345 157.062 204.692C156.955 203.038 155.528 201.784 153.874 201.891L154.261 207.879ZM167.061 199.28C165.492 199.813 164.652 201.516 165.184 203.085C165.716 204.654 167.42 205.494 168.989 204.962L167.061 199.28ZM175.939 202.08C177.424 201.346 178.034 199.547 177.3 198.062C176.566 196.576 174.767 195.967 173.281 196.701L175.939 202.08ZM184.456 189.221C183.21 190.314 183.087 192.21 184.18 193.455C185.273 194.7 187.168 194.824 188.414 193.731L184.456 189.221ZM193.731 188.414C194.824 187.168 194.7 185.273 193.455 184.18C192.21 183.087 190.314 183.21 189.221 184.456L193.731 188.414ZM196.701 173.281C195.967 174.767 196.576 176.566 198.062 177.3C199.547 178.034 201.346 177.424 202.08 175.939L196.701 173.281ZM204.962 168.989C205.494 167.42 204.654 165.716 203.085 165.184C201.516 164.652 199.813 165.492 199.28 167.061L204.962 168.989ZM201.891 153.874C201.784 155.528 203.038 156.955 204.692 157.062C206.345 157.168 207.772 155.915 207.879 154.261L201.891 153.874ZM253 150C253 148.709 252.976 147.424 252.929 146.144L246.933 146.365C246.978 147.571 247 148.783 247 150H253ZM251.222 130.845C250.744 128.308 250.174 125.803 249.514 123.334L243.717 124.883C244.339 127.207 244.876 129.565 245.325 131.955L251.222 130.845ZM244.428 108.799C243.397 106.439 242.28 104.124 241.081 101.86L235.778 104.668C236.907 106.8 237.959 108.979 238.93 111.201L244.428 108.799ZM232.878 88.8319C231.35 86.7649 229.747 84.7571 228.072 82.8127L223.526 86.7285C225.104 88.5602 226.614 90.4516 228.053 92.3986L232.878 88.8319ZM217.187 71.9281C215.243 70.2533 213.235 68.6498 211.168 67.1218L207.601 71.9466C209.548 73.386 211.44 74.8964 213.272 76.4742L217.187 71.9281ZM198.14 58.9194C195.876 57.7203 193.562 56.6031 191.201 55.5718L188.799 61.0699C191.021 62.0408 193.2 63.0926 195.332 64.2217L198.14 58.9194ZM176.666 50.486C174.197 49.8261 171.692 49.2557 169.155 48.7783L168.045 54.6749C170.435 55.1243 172.793 55.6614 175.117 56.2825L176.666 50.486ZM153.856 47.0709C152.576 47.0238 151.291 47 150 47V53C151.217 53 152.429 53.0224 153.635 53.0668L153.856 47.0709ZM150 47C148.912 47 147.829 47.0169 146.749 47.0504L146.935 53.0475C147.953 53.0159 148.974 53 150 53V47ZM133.806 48.2662C131.653 48.6063 129.522 49.0131 127.415 49.4844L128.725 55.3396C130.709 54.8959 132.715 54.5129 134.742 54.1927L133.806 48.2662ZM114.93 53.1252C113.909 53.495 112.895 53.8804 111.889 54.2813L114.111 59.855C115.057 59.4777 116.012 59.1149 116.973 58.7668L114.93 53.1252ZM111.889 54.2813C110.138 54.9794 108.41 55.7241 106.707 56.514L109.231 61.9569C110.835 61.2133 112.461 60.5122 114.111 59.855L111.889 54.2813ZM87.4328 68.1745C85.9387 69.3187 84.4769 70.5028 83.049 71.7252L86.951 76.2831C88.2962 75.1314 89.6733 74.016 91.0807 72.9382L87.4328 68.1745ZM83.049 71.7252C82.1107 72.5285 81.1871 73.3483 80.2785 74.1843L84.341 78.5997C85.197 77.8121 86.0671 77.0398 86.951 76.2831L83.049 71.7252ZM70.1273 84.9616C68.5681 86.8741 67.0762 88.8438 65.6552 90.867L70.5652 94.3155C71.9037 92.4098 73.309 90.5545 74.7778 88.7528L70.1273 84.9616ZM58.0368 103.565C56.9246 105.763 55.8889 108.007 54.9331 110.293L60.4687 112.608C61.3684 110.456 62.3435 108.343 63.3906 106.274L58.0368 103.565ZM50.2237 124.336C49.6131 126.716 49.0854 129.13 48.644 131.574L54.5484 132.641C54.964 130.34 55.4608 128.067 56.0356 125.826L50.2237 124.336ZM47.0654 146.296C47.0219 147.525 47 148.76 47 150H53C53 148.831 53.0207 147.667 53.0617 146.508L47.0654 146.296ZM47 150C47 151.291 47.0238 152.576 47.0709 153.856L53.0668 153.635C53.0224 152.429 53 151.217 53 150H47ZM48.7783 169.155C49.2557 171.692 49.8261 174.197 50.486 176.666L56.2825 175.117C55.6614 172.793 55.1243 170.435 54.6749 168.045L48.7783 169.155ZM55.5718 191.201C56.6031 193.561 57.7203 195.876 58.9194 198.14L64.2217 195.332C63.0926 193.2 62.0408 191.021 61.0699 188.799L55.5718 191.201ZM67.1218 211.168C68.6498 213.235 70.2533 215.243 71.9281 217.187L76.4742 213.272C74.8964 211.44 73.3859 209.548 71.9466 207.601L67.1218 211.168ZM82.8127 228.072C84.7571 229.747 86.7649 231.35 88.8319 232.878L92.3986 228.053C90.4515 226.614 88.5602 225.104 86.7284 223.526L82.8127 228.072ZM101.86 241.081C104.124 242.28 106.438 243.397 108.799 244.428L111.201 238.93C108.979 237.959 106.8 236.907 104.668 235.778L101.86 241.081ZM123.334 249.514C125.803 250.174 128.308 250.744 130.845 251.222L131.955 245.325C129.565 244.876 127.207 244.339 124.883 243.717L123.334 249.514ZM146.144 252.929C147.424 252.976 148.709 253 150 253V247C148.783 247 147.571 246.978 146.365 246.933L146.144 252.929ZM150 253C151.291 253 152.576 252.976 153.856 252.929L153.635 246.933C152.429 246.978 151.217 247 150 247V253ZM169.155 251.222C171.692 250.744 174.197 250.174 176.666 249.514L175.117 243.717C172.793 244.339 170.435 244.876 168.045 245.325L169.155 251.222ZM191.201 244.428C193.561 243.397 195.876 242.28 198.14 241.081L195.332 235.778C193.2 236.907 191.021 237.959 188.799 238.93L191.201 244.428ZM211.168 232.878C213.235 231.35 215.243 229.747 217.187 228.072L213.272 223.526C211.44 225.104 209.548 226.614 207.601 228.053L211.168 232.878ZM228.072 217.187C229.747 215.243 231.35 213.235 232.878 211.168L228.053 207.601C226.614 209.548 225.104 211.44 223.526 213.272L228.072 217.187ZM241.081 198.14C242.28 195.876 243.397 193.562 244.428 191.201L238.93 188.799C237.959 191.021 236.907 193.2 235.778 195.332L241.081 198.14ZM249.514 176.666C250.174 174.197 250.744 171.692 251.222 169.155L245.325 168.045C244.876 170.435 244.339 172.793 243.717 175.117L249.514 176.666ZM252.929 153.856C252.976 152.576 253 151.291 253 150H247C247 151.217 246.978 152.429 246.933 153.635L252.929 153.856ZM208 150.5C208 149.237 207.959 147.982 207.879 146.739L201.891 147.126C201.963 148.241 202 149.366 202 150.5H208ZM204.962 132.011C204.15 129.62 203.186 127.299 202.08 125.061L196.701 127.719C197.691 129.722 198.554 131.799 199.28 133.939L204.962 132.011ZM193.731 112.586C192.076 110.701 190.299 108.924 188.414 107.269L184.456 111.779C186.146 113.262 187.738 114.854 189.221 116.544L193.731 112.586ZM175.939 98.9199C173.701 97.8141 171.38 96.8496 168.989 96.038L167.061 101.72C169.201 102.446 171.278 103.309 173.281 104.299L175.939 98.9199ZM154.261 93.1212C153.018 93.0408 151.763 93 150.5 93V99C151.634 99 152.759 99.0366 153.874 99.1087L154.261 93.1212ZM150.5 93C149.237 93 147.982 93.0408 146.739 93.1212L147.126 99.1087C148.241 99.0366 149.366 99 150.5 99V93ZM132.011 96.038C129.62 96.8496 127.299 97.8141 125.061 98.9198L127.719 104.299C129.722 103.309 131.799 102.446 133.939 101.72L132.011 96.038ZM112.586 107.269C110.701 108.924 108.924 110.701 107.269 112.586L111.779 116.544C113.262 114.854 114.854 113.262 116.544 111.779L112.586 107.269ZM98.9199 125.061C97.8141 127.299 96.8496 129.62 96.038 132.011L101.72 133.939C102.446 131.799 103.309 129.722 104.299 127.719L98.9199 125.061ZM93.1212 146.739C93.0408 147.982 93 149.237 93 150.5H99C99 149.366 99.0366 148.241 99.1087 147.126L93.1212 146.739ZM93 150.5C93 151.763 93.0408 153.018 93.1212 154.261L99.1087 153.874C99.0366 152.759 99 151.634 99 150.5H93ZM96.038 168.989C96.8496 171.38 97.8141 173.701 98.9198 175.939L104.299 173.281C103.309 171.278 102.446 169.201 101.72 167.061L96.038 168.989ZM107.269 188.414C108.924 190.299 110.701 192.076 112.586 193.731L116.544 189.221C114.854 187.738 113.262 186.146 111.779 184.456L107.269 188.414ZM125.061 202.08C127.299 203.186 129.62 204.15 132.011 204.962L133.939 199.28C131.799 198.554 129.722 197.691 127.719 196.701L125.061 202.08ZM146.739 207.879C147.982 207.959 149.237 208 150.5 208V202C149.366 202 148.241 201.963 147.126 201.891L146.739 207.879ZM150.5 208C151.763 208 153.018 207.959 154.261 207.879L153.874 201.891C152.759 201.963 151.634 202 150.5 202V208ZM168.989 204.962C171.38 204.15 173.701 203.186 175.939 202.08L173.281 196.701C171.278 197.691 169.201 198.554 167.061 199.28L168.989 204.962ZM188.414 193.731C190.299 192.076 192.076 190.299 193.731 188.414L189.221 184.456C187.738 186.146 186.146 187.738 184.456 189.221L188.414 193.731ZM202.08 175.939C203.186 173.701 204.15 171.38 204.962 168.989L199.28 167.061C198.554 169.201 197.691 171.278 196.701 173.281L202.08 175.939ZM207.879 154.261C207.959 153.018 208 151.763 208 150.5H202C202 151.634 201.963 152.759 201.891 153.874L207.879 154.261Z" fill="white" mask="url(#path-4-inside-1_1003_107)"/>
</g>
<defs>
<clipPath id="clip0_1003_107">
<rect width="300" height="300" fill="white"/>
</clipPath>
</defs>
</svg>
