<svg width="376" height="332" viewBox="0 0 376 332" fill="none" xmlns="http://www.w3.org/2000/svg">
<path fill-rule="evenodd" clip-rule="evenodd" d="M61.348 6.43772C60.104 0.688458 68.0829 -2.11551 70.709 3.14806L92.8863 47.5989L74 64.0003L76.3994 75.9974L68.0599 37.4568L82.4999 27.0002L78.4999 19.0002L66.0119 27.9917L61.348 6.43772ZM66.0119 27.9917L66 28.0002L68 37.5002L68.0599 37.4568L66.0119 27.9917ZM77.5758 81.4343L77.4999 81.5001L76.3994 75.9974L77.5758 81.4343ZM97.8647 57.5771L99.9999 62.0001L77.5758 81.4343L84.6028 113.91L84.4999 114L87.0541 125.238L92.8923 152.219C93.0516 152.955 93.3634 153.615 93.786 154.174C43.0375 179.888 0.000244141 232.444 0.000244141 266.895C2.48824 334.051 189.24 379.65 218.568 242.852V229.466C238.83 228.822 263.249 223.681 288.3 213.93C344.956 191.874 383.344 154.623 374.042 130.728C368.815 117.301 349.641 110.948 323.791 111.872C324.753 107.361 324.541 103.084 323.019 99.1743C313.951 75.8828 261.836 74.4286 206.616 95.9264C177.175 107.388 152.796 123.059 137.824 138.723C137.807 138.015 137.638 137.296 137.298 136.614L121.61 105.17L113.5 88.5001L113.356 88.6268L97.8647 57.5771ZM97.8647 57.5771L92.9999 47.5002L92.8863 47.5989L97.8647 57.5771ZM113.356 88.6268L121.61 105.17L122.5 107L89.5 136L87.0541 125.238L84.6028 113.91L113.356 88.6268ZM201.193 156.323C185.511 143.679 167.594 138.575 149.061 138.951C163.284 126.041 184.342 113.183 209.518 103.382C236.38 92.9241 262.14 88.2001 281.901 88.7515C291.799 89.0277 299.785 90.6164 305.561 93.146C311.298 95.658 314.295 98.8177 315.563 102.077C316.6 104.739 316.742 108.133 315.381 112.41C297.066 114.071 276.068 119.046 254.614 127.398C233.877 135.47 215.593 145.579 201.193 156.323ZM95 251C104.941 251 113 242.941 113 233C113 223.059 104.941 215 95 215C85.0589 215 77 223.059 77 233C77 242.941 85.0589 251 95 251Z" fill="url(#paint0_angular_406_42)"/>
<defs>
<radialGradient id="paint0_angular_406_42" cx="0" cy="0" r="1" gradientUnits="userSpaceOnUse" gradientTransform="translate(187.716 165.963) rotate(-8.92444) scale(190.016 168.783)">
<stop offset="0.016863" stop-color="#FFF28F"/>
<stop offset="0.437766" stop-color="#C38FE9"/>
<stop offset="0.653536" stop-color="#F887D6"/>
<stop offset="0.936929" stop-color="#9DF1E0"/>
</radialGradient>
</defs>
</svg>
