<svg width="500" height="500" viewBox="0 0 500 500" fill="none" xmlns="http://www.w3.org/2000/svg">
<g clip-path="url(#clip0_10_101)">
<circle cx="250" cy="250" r="250" fill="url(#paint0_angular_10_101)"/>
<g style="mix-blend-mode:soft-light">
<path d="M406.291 159.626C408.059 164.167 407.704 169.662 404.892 176.034C402.072 182.427 396.891 189.409 389.558 196.526C374.903 210.747 352.237 224.942 325.001 235.545C297.766 246.148 271.468 251.016 251.056 250.446C240.84 250.161 232.302 248.52 225.902 245.717C219.522 242.923 215.545 239.114 213.777 234.573C212.009 230.033 212.364 224.537 215.176 218.165C217.996 211.773 223.177 204.79 230.511 197.673C245.165 183.452 267.831 169.257 295.067 158.654C322.303 148.051 348.6 143.183 369.013 143.753C379.228 144.038 387.766 145.679 394.166 148.482C400.546 151.276 404.523 155.085 406.291 159.626Z" fill="#F689D6"/>
<path d="M406.291 159.626C408.059 164.167 407.704 169.662 404.892 176.034C402.072 182.427 396.891 189.409 389.558 196.526C374.903 210.747 352.237 224.942 325.001 235.545C297.766 246.148 271.468 251.016 251.056 250.446C240.84 250.161 232.302 248.52 225.902 245.717C219.522 242.923 215.545 239.114 213.777 234.573C212.009 230.033 212.364 224.537 215.176 218.165C217.996 211.773 223.177 204.79 230.511 197.673C245.165 183.452 267.831 169.257 295.067 158.654C322.303 148.051 348.6 143.183 369.013 143.753C379.228 144.038 387.766 145.679 394.166 148.482C400.546 151.276 404.523 155.085 406.291 159.626Z" stroke="white" stroke-width="8"/>
</g>
<path d="M461.042 189.728C451.74 165.833 398.27 164.342 341.614 186.398C320.877 194.47 302.593 204.579 288.193 215.323C213.175 154.837 87.0002 266.907 87.0002 325.895C89.4882 393.051 276.24 438.65 305.568 301.852V288.466C325.83 287.822 350.249 282.681 375.3 272.93C431.956 250.874 470.344 213.623 461.042 189.728Z" fill="white"/>
<path fill-rule="evenodd" clip-rule="evenodd" d="M157.709 62.1481C155.083 56.8845 147.104 59.6885 148.348 65.4377L153.012 86.9917L153 87.0002L155 96.5002L155.06 96.4568L163.399 134.997L164.5 140.5L164.576 140.434L171.603 172.91L171.5 173L174.054 184.238L179.892 211.219C180.529 214.16 183.599 215.876 186.437 214.879L221.481 202.564C224.32 201.566 225.641 198.306 224.298 195.614L208.61 164.17L200.5 147.5L200.356 147.627L184.865 116.577L180 106.5L179.886 106.599L157.709 62.1481ZM179.886 106.599L184.865 116.577L187 121L164.576 140.434L163.399 134.997L161 123L179.886 106.599ZM200.356 147.627L171.603 172.91L174.054 184.238L176.5 195L209.5 166L208.61 164.17L200.356 147.627ZM155.06 96.4568L169.5 86.0002L165.5 78.0002L153.012 86.9917L155.06 96.4568Z" fill="white"/>
<circle cx="182" cy="292" r="18" fill="#E9D1F0"/>
</g>
<defs>
<radialGradient id="paint0_angular_10_101" cx="0" cy="0" r="1" gradientUnits="userSpaceOnUse" gradientTransform="translate(250 250) rotate(-10.0929) scale(253.93)">
<stop offset="0.016863" stop-color="#FFF28F"/>
<stop offset="0.437766" stop-color="#C38FE9"/>
<stop offset="0.653536" stop-color="#F887D6"/>
<stop offset="0.936929" stop-color="#9DF1E0"/>
</radialGradient>
<clipPath id="clip0_10_101">
<rect width="500" height="500" fill="white"/>
</clipPath>
</defs>
</svg>
